<?xml version="1.0" standalone="no"?>
<!DOCTYPE svg PUBLIC "-//W3C//DTD SVG 20010904//EN"
 "http://www.w3.org/TR/2001/REC-SVG-20010904/DTD/svg10.dtd">
<svg version="1.0" xmlns="http://www.w3.org/2000/svg"
 width="700.678164pt" height="700.483556pt" viewBox="0 0 700.678164 700.483556"
 preserveAspectRatio="xMidYMid meet">
<metadata>
Created by potrace 1.12, written by Peter Selinger 2001-2015
</metadata>
<g transform="translate(-285.235719,977.757251) scale(0.100000,-0.100000)"
fill="#000000" stroke="none">
<path d="M5142 9769 c-829 -60 -1561 -511 -1934 -1194 -210 -384 -309 -832
-280 -1262 29 -418 134 -753 339 -1085 154 -250 393 -500 638 -670 478 -332
1071 -487 1709 -448 261 16 280 18 405 44 516 108 963 385 1234 766 127 176
241 437 307 701 39 153 39 161 -1 157 -30 -3 -32 -7 -75 -122 -160 -433 -420
-767 -793 -1016 -100 -67 -311 -180 -336 -180 -13 0 -15 155 -15 1370 l0 1370
572 0 c314 0 569 2 566 5 -3 4 -247 6 -542 5 -474 0 -536 1 -536 15 0 8 -9 15
-19 15 -20 0 -35 -12 -60 -48 -11 -16 -18 -19 -28 -10 -9 7 -13 7 -13 0 0 -6
-7 -9 -15 -6 -8 3 -24 -1 -36 -9 -21 -15 -21 -15 -1 -26 11 -6 23 -7 27 -3 5
4 5 1 1 -5 -4 -7 -2 -13 3 -13 6 0 11 -4 11 -10 0 -5 -7 -10 -15 -10 -8 0 -15
7 -15 15 0 18 -50 21 -51 3 -1 -7 -2 -22 -3 -32 -1 -20 -26 -36 -26 -16 0 8
-6 8 -21 0 -14 -8 -24 -8 -33 -1 -7 6 -16 8 -19 4 -4 -3 -7 0 -7 8 0 8 9 20
21 27 15 10 18 16 10 26 -6 7 -8 16 -4 19 3 4 1 7 -6 7 -7 0 -9 5 -6 10 3 6 1
10 -4 10 -6 0 -11 -11 -11 -25 0 -26 -11 -29 -45 -15 -18 7 -19 8 -2 15 24 10
21 24 -8 31 -27 7 -35 34 -9 34 8 0 12 5 9 10 -3 6 -17 10 -30 10 -13 0 -27
-4 -30 -10 -3 -5 1 -10 9 -10 9 0 16 -8 16 -18 0 -13 -12 -22 -40 -31 -55 -16
-50 -29 13 -34 l52 -3 -54 -2 c-37 -1 -60 3 -72 14 -11 10 -19 12 -24 5 -3 -6
1 -11 9 -11 9 0 16 -4 16 -10 0 -5 -6 -10 -14 -10 -7 0 -17 -15 -22 -32 -7
-28 -9 -23 -12 37 -1 39 -7 74 -12 79 -4 4 -43 8 -87 8 -43 0 -70 2 -60 5 32
9 17 19 -32 21 -34 1 -55 -3 -65 -14 -9 -8 -16 -11 -16 -6 0 6 -9 8 -20 5 -11
-3 -17 -9 -14 -14 9 -16 -6 -10 -28 11 -26 24 -58 26 -58 5 0 -16 20 -16 32 0
5 6 8 5 8 -2 0 -23 -40 -34 -127 -35 -64 -1 -80 -4 -62 -10 14 -6 62 -5 120 1
53 6 167 14 253 17 l156 7 0 -1441 c0 -1142 -3 -1442 -12 -1449 -23 -14 -414
-16 -531 -3 -217 24 -452 96 -667 206 -575 292 -949 842 -1054 1551 -54 361
-38 709 49 1054 148 584 513 1054 1011 1303 470 235 1069 236 1569 2 395 -185
716 -527 840 -895 19 -58 25 -66 49 -69 27 -3 28 -2 22 35 -6 43 -37 336 -66
638 -16 164 -23 202 -37 213 -10 8 -70 40 -133 72 -543 273 -1131 392 -1728
349z m1166 -1745 c7 -14 8 -23 2 -19 -6 4 -10 -6 -10 -24 0 -17 -4 -31 -10
-31 -5 0 -10 23 -10 50 0 55 10 64 28 24z"/>
<path d="M5665 8360 c-4 -6 14 -10 47 -11 45 -1 49 -3 23 -9 -22 -6 -24 -8 -9
-9 11 0 36 6 53 15 37 19 128 15 141 -5 5 -9 9 -8 14 4 5 15 9 15 23 4 12 -10
14 -10 9 -1 -10 17 225 17 242 0 8 -8 15 -9 20 -3 4 6 43 11 86 13 44 1 82 5
85 7 2 3 -160 5 -362 5 -233 0 -368 -4 -372 -10z"/>
<path d="M6553 8363 c43 -2 110 -2 150 0 40 1 5 3 -78 3 -82 0 -115 -2 -72 -3z"/>
<path d="M6838 8363 c12 -2 22 -9 22 -14 0 -15 152 -7 158 9 3 9 -21 12 -100
11 -56 -1 -93 -4 -80 -6z"/>
<path d="M7200 8366 c0 -2 21 -11 47 -20 33 -11 49 -13 54 -5 3 6 18 12 33 12
14 1 26 5 26 10 0 4 -36 7 -80 7 -44 0 -80 -2 -80 -4z"/>
<path d="M7399 8354 c22 -9 47 -12 70 -8 74 13 65 23 -19 23 -84 0 -84 0 -51
-15z"/>
<path d="M5455 8353 c-27 -2 -54 -8 -59 -14 -13 -12 21 -11 124 5 69 11 76 14
35 13 -27 0 -72 -2 -100 -4z"/>
<path d="M7595 8344 l-30 -15 30 7 c17 4 48 10 70 14 l40 7 -40 1 c-22 0 -53
-6 -70 -14z"/>
<path d="M7738 8343 c12 -2 30 -2 40 0 9 3 -1 5 -23 4 -22 0 -30 -2 -17 -4z"/>
<path d="M5350 8330 c12 -8 12 -10 1 -10 -8 0 -12 -2 -9 -5 3 -3 13 -3 22 1
19 7 11 24 -12 24 -15 0 -15 -2 -2 -10z"/>
<path d="M7637 8334 c-8 -9 1 -24 14 -24 6 0 8 4 4 9 -3 5 7 12 22 14 28 4 28
4 -3 6 -17 0 -34 -2 -37 -5z"/>
<path d="M5275 8320 c-28 -7 -27 -8 13 -9 27 -1 41 3 37 9 -7 11 -7 11 -50 0z"/>
<path d="M5448 8313 c-10 -2 -18 -8 -18 -13 0 -4 -9 -10 -20 -13 -28 -7 -25
-27 5 -27 18 0 25 5 25 20 0 11 7 20 15 20 8 0 15 5 15 10 0 6 -1 9 -2 9 -2
-1 -11 -3 -20 -6z"/>
<path d="M5674 8308 c-4 -7 -2 -8 4 -4 12 7 56 -17 47 -25 -2 -3 4 -5 15 -5
11 0 20 9 23 22 4 20 0 22 -39 22 -24 0 -47 -4 -50 -10z"/>
<path d="M5967 8311 c-15 -6 -16 -9 -5 -17 8 -6 56 -8 128 -4 128 7 127 10 -2
13 -49 1 -88 5 -88 10 0 8 -9 8 -33 -2z"/>
<path d="M7431 8316 c2 -2 20 -6 39 -10 25 -4 31 -3 20 4 -14 9 -69 15 -59 6z"/>
<path d="M7909 8311 c8 -5 20 -7 27 -4 16 6 53 -14 74 -39 13 -16 19 -17 48
-6 17 7 32 15 32 19 0 7 -141 39 -173 39 -17 0 -19 -2 -8 -9z"/>
<path d="M5117 8293 c-16 -3 -25 -9 -21 -15 5 -7 0 -9 -14 -6 -12 4 -22 2 -22
-3 0 -5 -9 -9 -20 -9 -11 0 -20 -2 -20 -4 0 -2 -3 -13 -7 -23 -6 -16 -4 -16
17 2 13 11 20 14 16 8 -10 -18 22 -16 40 2 9 8 24 15 35 15 10 0 19 5 19 10 0
6 10 15 23 20 20 8 20 9 2 8 -11 -1 -32 -3 -48 -5z"/>
<path d="M7645 8270 c-4 -6 7 -10 25 -10 18 0 29 4 25 10 -3 6 -15 10 -25 10
-10 0 -22 -4 -25 -10z"/>
<path d="M8100 8277 c0 -3 15 -10 32 -16 18 -6 28 -7 23 -2 -12 10 -55 25 -55
18z"/>
<path d="M8045 8243 c-18 -14 -18 -15 -2 -9 10 3 25 6 33 6 9 0 12 5 9 10 -8
14 -16 12 -40 -7z"/>
<path d="M8228 8230 c18 -11 43 -20 57 -20 13 0 27 -5 30 -10 4 -6 11 -7 18
-3 6 3 -16 17 -49 29 -74 29 -99 30 -56 4z"/>
<path d="M5118 8221 c5 -14 4 -14 -11 -2 -9 7 -17 9 -17 3 0 -17 31 -23 45 -8
12 12 12 15 -5 19 -14 4 -17 1 -12 -12z"/>
<path d="M6250 8229 c0 -5 11 -9 25 -9 14 0 25 2 25 4 0 2 -11 6 -25 8 -14 3
-25 1 -25 -3z"/>
<path d="M4890 8211 c-7 -11 -17 -18 -22 -15 -4 3 -18 2 -30 -2 -21 -6 -21 -7
-3 -20 12 -9 14 -14 5 -14 -7 0 -11 -2 -8 -5 3 -3 16 -1 29 4 16 7 19 10 7 10
-9 1 -19 5 -23 10 -3 6 9 7 30 4 21 -3 35 -2 35 5 0 6 3 17 6 26 9 22 -9 20
-26 -3z"/>
<path d="M7373 8223 c9 -2 25 -2 35 0 9 3 1 5 -18 5 -19 0 -27 -2 -17 -5z"/>
<path d="M7513 8213 c-28 -11 -10 -23 35 -23 93 0 248 -29 442 -83 8 -2 12 -2
7 0 -4 3 -4 10 -1 15 4 7 2 8 -4 4 -13 -8 -44 6 -43 20 0 5 -13 8 -30 6 -16
-1 -40 3 -51 9 -20 11 -20 13 -5 24 16 12 16 13 0 26 -15 12 -16 12 -11 -2 7
-17 -8 -39 -26 -39 -6 0 -4 5 4 10 9 6 10 10 3 10 -6 0 -20 3 -30 7 -16 6 -16
5 -4 -10 12 -15 10 -17 -15 -17 -20 0 -25 3 -16 9 11 7 10 9 -3 14 -9 4 -13 3
-10 -3 8 -12 6 -12 -75 1 -36 6 -87 10 -113 9 -32 -1 -47 3 -42 9 7 12 6 12
-12 4z"/>
<path d="M5215 8192 c-22 -9 -49 -24 -59 -34 -11 -10 -29 -18 -40 -18 -12 0
-28 -5 -36 -10 -21 -14 -10 -12 115 15 61 13 100 24 88 24 -24 1 -32 26 -10
34 8 4 7 5 -3 5 -8 0 -33 -7 -55 -16z"/>
<path d="M5003 8179 c-2 -23 -22 -51 -32 -45 -4 3 -13 1 -21 -5 -12 -7 -9 -9
10 -10 l25 -1 -25 -8 c-21 -7 -22 -8 -5 -10 17 -2 16 -3 -5 -9 -14 -4 -35 -4
-47 0 -18 7 -21 5 -18 -11 5 -25 -34 -34 -57 -13 -10 9 -18 13 -18 8 0 -4 8
-14 18 -21 9 -7 12 -14 5 -14 -6 0 -22 14 -34 31 -18 26 -19 33 -8 40 10 6 8
9 -9 9 -12 0 -25 7 -28 15 -7 18 -28 8 -74 -34 -22 -19 -27 -30 -18 -33 17 -6
58 -3 81 7 22 9 50 -1 42 -16 -4 -6 -13 -8 -20 -5 -9 3 -12 -5 -10 -25 2 -23
-1 -29 -12 -25 -8 3 -11 1 -8 -4 3 -6 -6 -15 -21 -20 -15 -6 -25 -13 -22 -16
3 -2 40 14 83 37 42 23 125 59 184 81 58 21 90 37 71 34 -19 -3 -29 -2 -22 1
6 2 9 10 6 15 -4 6 -2 8 3 5 6 -4 16 -1 22 7 9 11 8 15 -5 20 -9 4 -14 13 -10
21 3 8 0 15 -7 15 -7 0 -13 -9 -14 -21z m-273 -80 c0 -5 -4 -7 -10 -4 -5 3
-10 1 -10 -4 0 -6 -10 -11 -22 -11 -23 1 -23 1 2 15 30 17 40 18 40 4z"/>
<path d="M8410 8166 c8 -9 40 -24 70 -34 30 -11 64 -22 75 -26 47 -17 -18 16
-88 45 -43 18 -66 24 -57 15z"/>
<path d="M4916 8144 c-5 -12 -2 -15 10 -10 8 3 18 6 20 6 3 0 2 5 -1 10 -9 15
-22 12 -29 -6z"/>
<path d="M8581 8077 c0 -12 3 -16 6 -10 3 10 10 10 24 2 11 -6 25 -9 30 -7 6
2 -6 11 -25 21 -36 17 -36 16 -35 -6z"/>
<path d="M4623 8059 c-3 -11 -11 -18 -19 -15 -16 6 -66 -32 -58 -45 3 -5 10
-7 15 -4 13 9 11 -4 -3 -19 -11 -11 -15 -11 -25 3 -11 15 -12 14 -13 -1 0 -10
-8 -18 -17 -18 -19 0 -61 -45 -104 -112 -17 -27 -35 -48 -40 -48 -6 0 -8 -4
-5 -9 4 -5 3 -11 -1 -13 -12 -5 -63 -83 -63 -95 0 -15 -26 -64 -31 -59 -2 3
-16 -20 -31 -50 l-27 -54 28 0 c23 0 37 10 66 50 21 28 33 55 29 61 -4 7 -3 9
4 5 12 -7 55 48 44 58 -4 4 -2 6 3 5 6 -1 47 34 92 78 45 44 107 97 137 118
40 27 53 42 51 56 -2 11 0 17 6 14 5 -4 6 -11 3 -17 -4 -6 -1 -9 5 -7 7 3 12
7 11 9 -1 3 6 18 14 35 15 29 15 31 -10 52 -15 12 -32 19 -42 16 -11 -5 -14
-2 -9 10 3 9 4 17 1 17 -3 0 -8 -9 -11 -21z m23 -42 c8 3 14 1 14 -5 0 -5 -7
-13 -16 -16 -8 -3 -12 -11 -8 -17 4 -8 3 -9 -4 -5 -6 4 -9 13 -5 21 3 8 0 15
-7 15 -6 0 -8 5 -4 12 6 9 9 9 11 1 3 -7 11 -9 19 -6z m-77 -77 l-24 -21 24 7
c18 4 22 3 16 -7 -6 -9 -3 -11 9 -6 25 10 11 -8 -27 -34 -18 -12 -26 -16 -19
-9 14 16 16 34 3 26 -17 -11 -2 46 16 59 27 20 29 8 2 -15z m-142 -133 c-6
-15 19 -16 43 -2 8 4 2 -6 -14 -23 -29 -31 -50 -35 -39 -7 3 8 0 15 -6 15 -6
0 -8 7 -5 15 4 8 11 15 16 15 6 0 8 -6 5 -13z m-85 -131 c7 4 8 2 4 -5 -4 -6
-12 -9 -17 -6 -5 4 -9 2 -9 -2 0 -5 -7 -18 -16 -29 -14 -18 -15 -18 -4 4 6 12
8 28 4 34 -4 7 -3 8 4 4 7 -4 12 -1 13 6 0 10 2 10 6 0 2 -6 10 -9 15 -6z"/>
<path d="M8090 8075 c0 -7 61 -37 67 -32 2 3 -10 12 -28 21 -35 17 -39 19 -39
11z"/>
<path d="M8174 8031 c3 -4 20 -14 38 -21 18 -7 40 -19 48 -26 30 -24 124 -75
111 -60 -13 16 -7 36 10 36 6 0 7 -5 3 -12 -4 -7 -3 -8 5 -4 14 9 4 29 -12 23
-7 -2 -21 0 -32 5 -20 9 -20 9 -1 -6 23 -19 8 -21 -29 -4 -19 9 -22 14 -13 21
9 6 7 7 -6 3 -13 -4 -17 -2 -13 7 4 10 -4 14 -25 14 -16 0 -34 6 -39 14 -5 8
-9 10 -9 5 0 -6 -5 -5 -12 2 -14 14 -32 16 -24 3z"/>
<path d="M8699 8026 c16 -9 20 -15 11 -18 -11 -3 -10 -6 2 -10 11 -5 15 -2 14
8 -3 16 -24 34 -41 33 -5 0 1 -6 14 -13z"/>
<path d="M8845 7933 c27 -27 65 -49 65 -38 0 2 -21 18 -47 36 l-48 32 30 -30z"/>
<path d="M8395 7904 c41 -42 115 -93 120 -84 3 5 1 10 -5 10 -6 0 -8 5 -4 12
4 6 3 8 -4 4 -6 -3 -17 1 -25 9 -9 8 -22 15 -29 15 -10 0 -10 2 1 9 9 6 10 11
2 15 -6 4 -11 2 -11 -4 0 -6 -12 -3 -27 7 -16 9 -23 12 -18 7z"/>
<path d="M8920 7880 c0 -5 -8 -6 -17 -3 -15 6 -16 5 -3 -9 9 -10 17 -12 21 -6
4 6 13 7 20 2 12 -6 12 -5 0 9 -15 19 -21 21 -21 7z"/>
<path d="M9006 7810 c27 -23 48 -46 46 -53 -2 -7 0 -9 4 -4 4 4 20 -3 34 -15
15 -13 -5 7 -44 44 -39 38 -75 68 -80 68 -4 0 14 -18 40 -40z"/>
<path d="M8596 7729 c37 -38 70 -69 71 -69 1 0 0 7 -3 15 -4 8 -11 15 -18 15
-6 0 -4 5 4 10 12 8 11 10 -8 10 -19 0 -21 3 -11 19 14 21 6 51 -13 50 -10 0
-10 -2 0 -6 6 -2 12 -9 12 -15 0 -6 -7 -7 -16 -4 -8 3 -12 2 -9 -4 3 -6 3 -10
0 -10 -10 0 -40 33 -40 43 0 6 -9 11 -19 13 -12 2 5 -22 50 -67z"/>
<path d="M8684 7752 c3 -18 1 -22 -10 -18 -8 3 -14 1 -14 -4 0 -5 9 -11 19
-15 11 -3 21 -14 23 -23 3 -13 5 -12 10 5 3 12 3 22 -1 21 -17 -2 -25 3 -14
10 10 6 10 12 -3 28 -15 18 -15 18 -10 -4z"/>
<path d="M9060 7733 c0 -12 28 -38 34 -32 2 2 -5 13 -15 23 -11 11 -19 15 -19
9z"/>
<path d="M8800 7673 c0 -15 -2 -16 -10 -3 -5 8 -10 13 -11 10 0 -3 -3 -25 -5
-48 -4 -34 -2 -42 8 -37 7 3 4 -1 -7 -9 -17 -15 -20 -15 -29 1 -5 10 -17 26
-26 35 -10 9 -20 23 -23 30 -2 7 -7 10 -11 7 -10 -9 59 -95 73 -91 7 1 10 -2
6 -8 -8 -13 64 -122 76 -114 4 2 5 12 2 21 -4 11 -3 14 5 9 7 -4 12 -3 12 3 0
5 -6 11 -12 14 -7 3 -4 5 7 4 20 -1 23 -16 16 -81 -1 -5 -9 -2 -18 5 -17 13
-17 12 -2 -6 22 -28 112 -192 132 -240 8 -22 19 -39 24 -38 4 1 9 -8 9 -20 1
-12 20 -74 43 -137 42 -121 78 -272 108 -455 14 -87 18 -168 18 -395 0 -250
-3 -303 -23 -429 -69 -427 -207 -755 -441 -1048 -230 -288 -584 -496 -964
-565 -118 -21 -145 -22 -767 -23 l-645 0 -3 569 c-2 536 -3 568 -20 561 -50
-22 -195 -60 -334 -87 l-158 -31 0 -351 c0 -193 -5 -382 -10 -421 -21 -143
-103 -256 -236 -321 -62 -31 -88 -38 -161 -43 -87 -6 -88 -6 -91 -34 l-3 -28
1178 4 c1242 5 1249 5 1498 53 580 113 1096 452 1419 934 320 478 432 1130
301 1763 -56 270 -193 582 -352 798 -67 93 -223 269 -223 254 0 -5 7 -17 17
-27 9 -10 13 -21 10 -24 -4 -4 -14 2 -24 13 -10 10 -14 13 -9 5 7 -9 5 -17 -5
-24 -11 -8 -11 -9 4 -4 11 3 17 0 17 -9 0 -7 4 -16 9 -19 5 -3 8 2 7 11 0 9 5
18 12 20 7 3 10 -1 6 -10 -3 -8 -1 -18 5 -22 7 -4 8 1 4 12 -6 15 -4 16 8 6
16 -13 18 -50 4 -74 -7 -12 -6 -12 10 1 17 14 18 13 13 -7 -4 -13 -2 -23 2
-23 16 0 17 25 2 43 -8 9 -11 17 -5 17 11 0 41 -30 42 -42 1 -5 1 -14 1 -20 0
-10 2 -10 9 0 5 9 16 1 36 -30 16 -24 27 -45 26 -46 -1 -2 5 -9 15 -16 16 -12
16 -13 -2 -20 -11 -4 -20 -3 -22 3 -2 6 -11 11 -19 11 -14 0 -14 -2 0 -18 23
-26 22 -52 -3 -52 -11 0 -20 -4 -20 -9 0 -11 30 -36 30 -25 0 5 4 3 9 -5 5 -8
7 -20 4 -28 -8 -20 -36 -16 -51 7 -7 11 -19 20 -28 20 -19 0 -70 52 -79 81 -8
23 -50 26 -63 3 -5 -8 -25 -19 -45 -24 -31 -7 -37 -5 -37 9 -1 14 -2 13 -11
-2 -14 -23 -11 -26 33 -29 24 -1 34 -6 31 -14 -3 -9 -12 -10 -29 -4 -21 8 -24
7 -25 -13 l0 -22 -10 23 c-11 28 -51 27 -55 0 -1 -10 1 -17 4 -17 20 3 32 -3
42 -21 10 -19 9 -20 -17 -15 -15 3 -21 2 -13 -1 32 -14 42 -67 15 -78 -8 -3
-15 0 -15 7 0 7 -9 29 -20 50 -22 41 -25 51 -10 42 6 -4 7 1 3 12 -10 29 -24
43 -36 36 -6 -3 -7 -1 -3 6 6 9 11 9 21 1 11 -9 17 -5 29 22 20 45 38 65 61
70 18 5 18 6 -4 15 -27 11 -17 22 22 25 26 2 27 18 1 18 -10 0 -14 12 -14 41
0 34 -3 39 -13 30 -18 -14 -27 -4 -27 31 0 15 -4 28 -10 28 -5 0 -10 -7 -10
-15 0 -19 -50 -20 -69 -2 -11 10 -11 8 -1 -11 9 -18 17 -22 35 -18 13 3 26 2
29 -3 7 -10 -17 -21 -45 -21 -16 0 -18 -3 -9 -19 5 -11 10 -27 10 -36 0 -22
-22 -14 -26 9 -3 22 -24 47 -34 41 -4 -3 -10 5 -14 17 -3 14 0 26 8 30 10 6
11 18 6 47 -4 22 -3 38 1 35 5 -3 9 2 9 10 0 12 -10 16 -40 16 -31 0 -40 -4
-40 -17z m-6 -107 c-4 -10 2 -16 18 -18 15 -2 23 -9 22 -20 -4 -55 -4 -54 -16
-33 -6 11 -17 24 -25 28 -14 8 -18 39 -6 50 10 11 13 8 7 -7z m117 -170 c-9
-11 -9 -16 0 -21 6 -4 15 -1 20 6 5 8 9 10 9 4 -1 -5 -6 -18 -13 -27 -12 -15
-14 -15 -25 3 -9 14 -10 25 -1 40 6 11 13 18 16 15 3 -3 0 -12 -6 -20z m259
-66 c0 -5 -7 -10 -15 -10 -8 0 -15 5 -15 10 0 6 7 10 15 10 8 0 15 -4 15 -10z
m250 -20 c12 19 22 9 56 -60 15 -30 33 -63 41 -72 8 -9 12 -22 7 -29 -4 -8 -3
-10 5 -5 9 6 10 0 6 -21 -4 -18 -3 -23 2 -15 7 9 12 7 20 -10 8 -17 7 -26 -3
-36 -8 -7 -15 -8 -19 -2 -3 6 -1 10 4 10 6 0 11 7 11 16 0 8 -4 13 -9 10 -4
-3 -18 5 -30 18 -17 18 -19 25 -9 30 10 5 10 7 0 12 -6 3 -10 10 -6 15 3 5 1
9 -5 9 -6 0 -8 6 -6 13 3 6 1 19 -5 27 -7 12 -12 12 -22 2 -9 -9 -9 -12 0 -12
7 0 12 -4 12 -8 0 -5 -7 -9 -16 -9 -16 0 -16 17 1 62 4 11 3 15 -2 10 -4 -6
-14 -10 -20 -9 -7 1 -22 2 -34 3 -11 0 -17 5 -14 11 3 5 -1 20 -9 32 -24 35
-19 44 10 18 21 -21 27 -22 34 -10z m-200 -29 c0 -15 6 -19 28 -18 24 2 27 -2
30 -30 3 -25 -1 -33 -13 -33 -12 0 -15 6 -10 20 5 16 2 20 -15 20 -17 0 -20
-4 -15 -20 4 -14 2 -20 -8 -20 -35 0 -55 72 -26 91 21 13 29 11 29 -10z m261
-150 c-10 -17 -9 -21 5 -21 10 0 14 -5 11 -14 -3 -8 -2 -16 3 -18 5 -2 6 -9 1
-17 -12 -19 -33 -9 -51 24 -12 22 -12 29 -2 32 6 3 12 11 12 19 0 9 -5 12 -11
9 -6 -4 -5 2 3 14 11 17 15 19 26 7 11 -11 11 -18 3 -35z m-401 -98 c0 -7 -4
-13 -9 -13 -10 0 -21 36 -13 45 7 7 22 -15 22 -32z m360 22 c0 -1 -10 -5 -23
-7 -14 -3 -24 0 -24 7 0 7 10 10 24 7 13 -2 23 -6 23 -7z m165 -76 c4 -12 2
-26 -5 -33 -8 -8 -10 -7 -4 7 3 9 1 24 -6 32 -8 9 -8 15 -2 15 6 0 14 -9 17
-21z"/>
<path d="M9420 7285 c0 -9 5 -15 11 -13 6 2 11 8 11 13 0 5 -5 11 -11 13 -6 2
-11 -4 -11 -13z"/>
<path d="M8880 7625 c0 -9 5 -15 11 -13 6 2 11 8 11 13 0 5 -5 11 -11 13 -6 2
-11 -4 -11 -13z"/>
<path d="M9138 7513 c-16 -4 -16 -6 2 -26 14 -15 17 -23 8 -28 -8 -5 -7 -12 5
-24 15 -14 18 -14 23 -2 3 9 17 18 31 22 20 5 23 9 13 20 -6 8 -8 19 -4 26 4
7 2 10 -7 7 -8 -3 -23 -2 -34 2 -11 3 -28 5 -37 3z"/>
<path d="M9296 7471 c10 -10 21 -17 23 -15 6 6 -20 34 -32 34 -6 0 -2 -8 9
-19z"/>
<path d="M9280 7455 c6 -8 9 -19 5 -24 -4 -7 0 -8 10 -5 14 6 14 8 -1 25 -20
22 -32 26 -14 4z"/>
<path d="M9200 7385 c0 -11 53 -55 66 -55 22 0 16 16 -11 28 -14 6 -25 16 -25
22 0 5 -7 10 -15 10 -8 0 -15 -2 -15 -5z"/>
<path d="M7480 3210 c-89 -17 -134 -77 -106 -145 16 -38 40 -54 133 -89 94
-36 123 -59 123 -97 0 -43 -15 -65 -51 -78 -63 -22 -145 -7 -178 32 -18 22
-43 22 -39 0 6 -31 77 -57 153 -57 108 0 165 40 165 115 0 56 -28 82 -140 129
-129 55 -154 87 -110 143 39 49 141 48 191 -3 28 -27 39 -29 39 -4 0 14 -72
50 -115 56 -16 3 -46 2 -65 -2z m188 -326 l-3 -29 -13 23 c-8 13 -11 31 -7 39
9 26 27 0 23 -33z"/>
<path d="M8137 3209 c-226 -53 -241 -361 -21 -425 160 -46 304 52 304 209 0
114 -58 187 -168 213 -64 15 -63 15 -115 3z m117 -23 c97 -40 138 -180 88
-296 -27 -60 -86 -100 -150 -100 -104 0 -172 84 -172 213 0 141 117 232 234
183z"/>
<path d="M3785 3177 c-4 -17 -5 -113 -3 -212 l3 -180 148 -3 c96 -2 147 1 147
8 0 6 -45 10 -120 10 l-120 0 0 205 0 205 -25 0 c-19 0 -25 -6 -30 -33z"/>
<path d="M4446 3008 c-116 -240 -111 -228 -97 -228 6 0 26 29 43 65 l32 65
117 0 117 0 27 -65 c26 -61 30 -65 61 -65 l33 0 -103 213 c-58 119 -109 213
-118 215 -10 2 -43 -57 -112 -200z m144 42 c27 -55 50 -104 50 -110 0 -12
-200 -14 -200 -2 0 8 93 211 97 212 2 0 25 -45 53 -100z"/>
<path d="M5507 3204 c-11 -12 -9 -424 3 -424 6 0 10 67 10 180 0 99 3 180 8
180 4 0 48 -81 97 -180 49 -99 93 -180 96 -180 4 0 9 7 13 15 3 9 0 15 -8 15
-14 0 -26 21 -26 46 0 22 40 -2 41 -24 0 -9 39 60 87 153 l87 170 6 -180 c4
-99 7 -183 8 -187 0 -5 12 -8 26 -8 l25 0 -2 213 -3 212 -30 0 c-29 0 -34 -7
-115 -167 -47 -93 -88 -168 -92 -168 -3 0 -44 75 -90 168 -72 144 -87 167
-109 170 -13 2 -28 0 -32 -4z"/>
<path d="M6376 3018 c-103 -214 -113 -238 -96 -238 6 0 25 29 41 65 l29 65
118 0 117 -1 29 -64 c26 -58 32 -65 57 -65 16 0 29 3 29 8 0 4 -44 99 -98 212
-65 135 -104 206 -115 208 -14 3 -38 -39 -111 -190z m144 26 c28 -58 50 -108
50 -110 0 -2 -45 -4 -100 -4 -62 0 -100 4 -100 10 0 12 91 210 97 210 2 0 26
-48 53 -106z"/>
<path d="M7007 3203 c-4 -3 -7 -100 -7 -215 l0 -208 25 0 25 0 0 215 c0 202
-1 215 -18 215 -10 0 -22 -3 -25 -7z"/>
<path d="M8717 3203 c-11 -11 -8 -423 3 -423 6 0 10 67 10 180 0 99 4 180 9
180 4 0 79 -80 166 -177 143 -162 175 -193 175 -170 0 4 0 100 0 213 0 133 -3
203 -10 199 -6 -4 -9 -46 -7 -103 2 -53 1 -126 -2 -162 l-6 -64 -149 167
c-136 152 -169 180 -189 160z m326 -330 c25 -20 38 -63 18 -63 -11 0 -71 67
-71 79 0 14 24 7 53 -16z"/>
<path d="M2883 2993 c71 -2 183 -2 250 0 67 1 10 3 -128 3 -137 0 -192 -2
-122 -3z"/>
<path d="M9612 2993 c59 -2 158 -2 220 0 62 1 14 3 -107 3 -121 0 -172 -2
-113 -3z"/>
</g>
</svg>
